solid OpenSCAD_Model
  facet normal 0 0 1
    outer loop
      vertex 10.314 14.9901 1.2
      vertex 15 10 1.2
      vertex 14.9606 10.6267 1.2
    endloop
  endfacet
  facet normal 0 0 1
    outer loop
      vertex 15 10 1.2
      vertex 1.8 0 1.2
      vertex 15 -10 1.2
    endloop
  endfacet
  facet normal 0 0 1
    outer loop
      vertex 10.314 14.9901 1.2
      vertex 14.9606 10.6267 1.2
      vertex 14.8429 11.2434 1.2
    endloop
  endfacet
  facet normal -0 0 1
    outer loop
      vertex 1.78581 -0.225599 1.2
      vertex 15 -10 1.2
      vertex 1.8 0 1.2
    endloop
  endfacet
  facet normal 0 0 1
    outer loop
      vertex 10.314 14.9901 1.2
      vertex 14.8429 11.2434 1.2
      vertex 14.6489 11.8406 1.2
    endloop
  endfacet
  facet normal -0 0 1
    outer loop
      vertex 1.74345 -0.447641 1.2
      vertex 15 -10 1.2
      vertex 1.78581 -0.225599 1.2
    endloop
  endfacet
  facet normal 0 0 1
    outer loop
      vertex 10.314 14.9901 1.2
      vertex 14.6489 11.8406 1.2
      vertex 14.3815 12.4088 1.2
    endloop
  endfacet
  facet normal -0 0 1
    outer loop
      vertex 1.6736 -0.662623 1.2
      vertex 15 -10 1.2
      vertex 1.74345 -0.447641 1.2
    endloop
  endfacet
  facet normal 0 0 1
    outer loop
      vertex 10.314 14.9901 1.2
      vertex 14.3815 12.4088 1.2
      vertex 14.0451 12.9389 1.2
    endloop
  endfacet
  facet normal -0 0 1
    outer loop
      vertex 1.57735 -0.867156 1.2
      vertex 15 -10 1.2
      vertex 1.6736 -0.662623 1.2
    endloop
  endfacet
  facet normal 0 0 1
    outer loop
      vertex 10.314 14.9901 1.2
      vertex 14.0451 12.9389 1.2
      vertex 13.6448 13.4227 1.2
    endloop
  endfacet
  facet normal -0 0 1
    outer loop
      vertex 1.45623 -1.05801 1.2
      vertex 15 -10 1.2
      vertex 1.57735 -0.867156 1.2
    endloop
  endfacet
  facet normal 0 0 1
    outer loop
      vertex 10.314 14.9901 1.2
      vertex 13.6448 13.4227 1.2
      vertex 13.1871 13.8526 1.2
    endloop
  endfacet
  facet normal -0 0 1
    outer loop
      vertex 1.31214 -1.23218 1.2
      vertex 15 -10 1.2
      vertex 1.45623 -1.05801 1.2
    endloop
  endfacet
  facet normal 0 0 1
    outer loop
      vertex 10.314 14.9901 1.2
      vertex 13.1871 13.8526 1.2
      vertex 12.6791 14.2216 1.2
    endloop
  endfacet
  facet normal 0 -0 1
    outer loop
      vertex 10.314 -14.9901 1.2
      vertex 15 -10 1.2
      vertex 1.31214 -1.23218 1.2
    endloop
  endfacet
  facet normal 0 0 1
    outer loop
      vertex 10.314 14.9901 1.2
      vertex 12.6791 14.2216 1.2
      vertex 12.1289 14.5241 1.2
    endloop
  endfacet
  facet normal 0 0 1
    outer loop
      vertex 15 -10 1.2
      vertex 10.314 -14.9901 1.2
      vertex 14.9606 -10.6267 1.2
    endloop
  endfacet
  facet normal 0 0 1
    outer loop
      vertex 10.314 14.9901 1.2
      vertex 12.1289 14.5241 1.2
      vertex 11.5451 14.7553 1.2
    endloop
  endfacet
  facet normal 0 0 1
    outer loop
      vertex 14.9606 -10.6267 1.2
      vertex 10.314 -14.9901 1.2
      vertex 14.8429 -11.2434 1.2
    endloop
  endfacet
  facet normal 0 0 1
    outer loop
      vertex 10.314 14.9901 1.2
      vertex 11.5451 14.7553 1.2
      vertex 10.9369 14.9114 1.2
    endloop
  endfacet
  facet normal 0 0 1
    outer loop
      vertex 14.8429 -11.2434 1.2
      vertex 10.314 -14.9901 1.2
      vertex 14.6489 -11.8406 1.2
    endloop
  endfacet
  facet normal 0 0 1
    outer loop
      vertex 15 10 1.2
      vertex 10.314 14.9901 1.2
      vertex 1.31214 1.23218 1.2
    endloop
  endfacet
  facet normal 0 0 1
    outer loop
      vertex 14.3815 -12.4088 1.2
      vertex 10.314 -14.9901 1.2
      vertex 14.0451 -12.9389 1.2
    endloop
  endfacet
  facet normal 0 0 1
    outer loop
      vertex 14.0451 -12.9389 1.2
      vertex 10.314 -14.9901 1.2
      vertex 13.6448 -13.4227 1.2
    endloop
  endfacet
  facet normal 0 0 1
    outer loop
      vertex 15 10 1.2
      vertex 1.78581 0.225599 1.2
      vertex 1.8 0 1.2
    endloop
  endfacet
  facet normal 0 0 1
    outer loop
      vertex 15 10 1.2
      vertex 1.74345 0.447641 1.2
      vertex 1.78581 0.225599 1.2
    endloop
  endfacet
  facet normal 0 0 1
    outer loop
      vertex 15 10 1.2
      vertex 1.6736 0.662623 1.2
      vertex 1.74345 0.447641 1.2
    endloop
  endfacet
  facet normal 0 0 1
    outer loop
      vertex 15 10 1.2
      vertex 1.57735 0.867156 1.2
      vertex 1.6736 0.662623 1.2
    endloop
  endfacet
  facet normal 0 0 1
    outer loop
      vertex 15 10 1.2
      vertex 1.45623 1.05801 1.2
      vertex 1.57735 0.867156 1.2
    endloop
  endfacet
  facet normal 0 0 1
    outer loop
      vertex 15 10 1.2
      vertex 1.31214 1.23218 1.2
      vertex 1.45623 1.05801 1.2
    endloop
  endfacet
  facet normal 0 0 1
    outer loop
      vertex 10.314 14.9901 1.2
      vertex 1.14736 1.38692 1.2
      vertex 1.31214 1.23218 1.2
    endloop
  endfacet
  facet normal 0 0 1
    outer loop
      vertex 10.314 14.9901 1.2
      vertex 0.964488 1.51979 1.2
      vertex 1.14736 1.38692 1.2
    endloop
  endfacet
  facet normal 0 0 1
    outer loop
      vertex 10.314 14.9901 1.2
      vertex 0.766402 1.62869 1.2
      vertex 0.964488 1.51979 1.2
    endloop
  endfacet
  facet normal 0 0 1
    outer loop
      vertex 10.314 14.9901 1.2
      vertex 0.556231 1.7119 1.2
      vertex 0.766402 1.62869 1.2
    endloop
  endfacet
  facet normal 0 0 1
    outer loop
      vertex 10.314 14.9901 1.2
      vertex 0.337286 1.76812 1.2
      vertex 0.556231 1.7119 1.2
    endloop
  endfacet
  facet normal 0 0 1
    outer loop
      vertex 10.314 14.9901 1.2
      vertex 0.113023 1.79645 1.2
      vertex 0.337286 1.76812 1.2
    endloop
  endfacet
  facet normal 0 0 1
    outer loop
      vertex 10.314 14.9901 1.2
      vertex -0.113023 1.79645 1.2
      vertex 0.113023 1.79645 1.2
    endloop
  endfacet
  facet normal -0 0 1
    outer loop
      vertex -10.314 14.9901 1.2
      vertex -0.113023 1.79645 1.2
      vertex 10.314 14.9901 1.2
    endloop
  endfacet
  facet normal 0 0 1
    outer loop
      vertex -0.113023 1.79645 1.2
      vertex -10.314 14.9901 1.2
      vertex -0.337286 1.76812 1.2
    endloop
  endfacet
  facet normal 0 0 1
    outer loop
      vertex -0.337286 1.76812 1.2
      vertex -10.314 14.9901 1.2
      vertex -0.556231 1.7119 1.2
    endloop
  endfacet
  facet normal 0 0 1
    outer loop
      vertex -0.556231 1.7119 1.2
      vertex -10.314 14.9901 1.2
      vertex -0.766402 1.62869 1.2
    endloop
  endfacet
  facet normal 0 0 1
    outer loop
      vertex -0.766402 1.62869 1.2
      vertex -10.314 14.9901 1.2
      vertex -0.964488 1.51979 1.2
    endloop
  endfacet
  facet normal 0 0 1
    outer loop
      vertex -0.964488 1.51979 1.2
      vertex -10.314 14.9901 1.2
      vertex -1.14736 1.38692 1.2
    endloop
  endfacet
  facet normal 0 0 1
    outer loop
      vertex -1.74345 0.447641 1.2
      vertex -15 10 1.2
      vertex -1.78581 0.225599 1.2
    endloop
  endfacet
  facet normal 0 0 1
    outer loop
      vertex -1.6736 0.662623 1.2
      vertex -15 10 1.2
      vertex -1.74345 0.447641 1.2
    endloop
  endfacet
  facet normal 0 0 1
    outer loop
      vertex -1.57735 0.867156 1.2
      vertex -15 10 1.2
      vertex -1.6736 0.662623 1.2
    endloop
  endfacet
  facet normal 0 0 1
    outer loop
      vertex -1.45623 1.05801 1.2
      vertex -15 10 1.2
      vertex -1.57735 0.867156 1.2
    endloop
  endfacet
  facet normal 0 0 1
    outer loop
      vertex -1.31214 1.23218 1.2
      vertex -15 10 1.2
      vertex -1.45623 1.05801 1.2
    endloop
  endfacet
  facet normal -0 0 1
    outer loop
      vertex -15 10 1.2
      vertex -1.31214 1.23218 1.2
      vertex -10.314 14.9901 1.2
    endloop
  endfacet
  facet normal 0 0 1
    outer loop
      vertex -1.14736 1.38692 1.2
      vertex -10.314 14.9901 1.2
      vertex -1.31214 1.23218 1.2
    endloop
  endfacet
  facet normal 0 0 1
    outer loop
      vertex 13.6448 -13.4227 1.2
      vertex 10.314 -14.9901 1.2
      vertex 13.1871 -13.8526 1.2
    endloop
  endfacet
  facet normal 0 0 1
    outer loop
      vertex 13.1871 -13.8526 1.2
      vertex 10.314 -14.9901 1.2
      vertex 12.6791 -14.2216 1.2
    endloop
  endfacet
  facet normal 0 0 1
    outer loop
      vertex 12.1289 -14.5241 1.2
      vertex 10.314 -14.9901 1.2
      vertex 11.5451 -14.7553 1.2
    endloop
  endfacet
  facet normal 0 0 1
    outer loop
      vertex 11.5451 -14.7553 1.2
      vertex 10.314 -14.9901 1.2
      vertex 10.9369 -14.9114 1.2
    endloop
  endfacet
  facet normal 0 0 1
    outer loop
      vertex 12.6791 -14.2216 1.2
      vertex 10.314 -14.9901 1.2
      vertex 12.1289 -14.5241 1.2
    endloop
  endfacet
  facet normal 0 0 1
    outer loop
      vertex 14.6489 -11.8406 1.2
      vertex 10.314 -14.9901 1.2
      vertex 14.3815 -12.4088 1.2
    endloop
  endfacet
  facet normal -0 0 1
    outer loop
      vertex 1.14736 -1.38692 1.2
      vertex 10.314 -14.9901 1.2
      vertex 1.31214 -1.23218 1.2
    endloop
  endfacet
  facet normal -0 0 1
    outer loop
      vertex 0.964488 -1.51979 1.2
      vertex 10.314 -14.9901 1.2
      vertex 1.14736 -1.38692 1.2
    endloop
  endfacet
  facet normal -0 0 1
    outer loop
      vertex 0.766402 -1.62869 1.2
      vertex 10.314 -14.9901 1.2
      vertex 0.964488 -1.51979 1.2
    endloop
  endfacet
  facet normal -0 0 1
    outer loop
      vertex 0.556231 -1.7119 1.2
      vertex 10.314 -14.9901 1.2
      vertex 0.766402 -1.62869 1.2
    endloop
  endfacet
  facet normal -0 0 1
    outer loop
      vertex 0.337286 -1.76812 1.2
      vertex 10.314 -14.9901 1.2
      vertex 0.556231 -1.7119 1.2
    endloop
  endfacet
  facet normal -0 0 1
    outer loop
      vertex 0.113023 -1.79645 1.2
      vertex 10.314 -14.9901 1.2
      vertex 0.337286 -1.76812 1.2
    endloop
  endfacet
  facet normal -0 0 1
    outer loop
      vertex -0.113023 -1.79645 1.2
      vertex 10.314 -14.9901 1.2
      vertex 0.113023 -1.79645 1.2
    endloop
  endfacet
  facet normal 0 0 1
    outer loop
      vertex -10.314 -14.9901 1.2
      vertex -0.113023 -1.79645 1.2
      vertex -0.337286 -1.76812 1.2
    endloop
  endfacet
  facet normal 0 0 1
    outer loop
      vertex -10.314 -14.9901 1.2
      vertex -0.337286 -1.76812 1.2
      vertex -0.556231 -1.7119 1.2
    endloop
  endfacet
  facet normal 0 0 1
    outer loop
      vertex -10.314 -14.9901 1.2
      vertex -0.556231 -1.7119 1.2
      vertex -0.766402 -1.62869 1.2
    endloop
  endfacet
  facet normal 0 0 1
    outer loop
      vertex -10.314 -14.9901 1.2
      vertex -0.766402 -1.62869 1.2
      vertex -0.964488 -1.51979 1.2
    endloop
  endfacet
  facet normal 0 0 1
    outer loop
      vertex -10.314 -14.9901 1.2
      vertex -0.964488 -1.51979 1.2
      vertex -1.14736 -1.38692 1.2
    endloop
  endfacet
  facet normal 0 0 1
    outer loop
      vertex -10.314 -14.9901 1.2
      vertex -1.14736 -1.38692 1.2
      vertex -1.31214 -1.23218 1.2
    endloop
  endfacet
  facet normal 0 0 1
    outer loop
      vertex -1.78581 0.225599 1.2
      vertex -15 10 1.2
      vertex -1.8 0 1.2
    endloop
  endfacet
  facet normal 0 0 1
    outer loop
      vertex -15 -10 1.2
      vertex -1.8 0 1.2
      vertex -15 10 1.2
    endloop
  endfacet
  facet normal 0 0 1
    outer loop
      vertex -1.8 0 1.2
      vertex -15 -10 1.2
      vertex -1.78581 -0.225599 1.2
    endloop
  endfacet
  facet normal 0 0 1
    outer loop
      vertex -1.78581 -0.225599 1.2
      vertex -15 -10 1.2
      vertex -1.74345 -0.447641 1.2
    endloop
  endfacet
  facet normal 0 0 1
    outer loop
      vertex -0.113023 -1.79645 1.2
      vertex -10.314 -14.9901 1.2
      vertex 10.314 -14.9901 1.2
    endloop
  endfacet
  facet normal 0 0 1
    outer loop
      vertex -15 -10 1.2
      vertex -1.31214 -1.23218 1.2
      vertex -1.45623 -1.05801 1.2
    endloop
  endfacet
  facet normal 0 0 1
    outer loop
      vertex -15 -10 1.2
      vertex -1.45623 -1.05801 1.2
      vertex -1.57735 -0.867156 1.2
    endloop
  endfacet
  facet normal 0 0 1
    outer loop
      vertex -1.74345 -0.447641 1.2
      vertex -15 -10 1.2
      vertex -1.6736 -0.662623 1.2
    endloop
  endfacet
  facet normal 0 0 1
    outer loop
      vertex -15 10 1.2
      vertex -10.314 14.9901 1.2
      vertex -10.9369 14.9114 1.2
    endloop
  endfacet
  facet normal 0 0 1
    outer loop
      vertex -1.6736 -0.662623 1.2
      vertex -15 -10 1.2
      vertex -1.57735 -0.867156 1.2
    endloop
  endfacet
  facet normal 0 0 1
    outer loop
      vertex -15 10 1.2
      vertex -10.9369 14.9114 1.2
      vertex -11.5451 14.7553 1.2
    endloop
  endfacet
  facet normal 0 0 1
    outer loop
      vertex -1.31214 -1.23218 1.2
      vertex -15 -10 1.2
      vertex -10.314 -14.9901 1.2
    endloop
  endfacet
  facet normal 0 0 1
    outer loop
      vertex -15 10 1.2
      vertex -11.5451 14.7553 1.2
      vertex -12.1289 14.5241 1.2
    endloop
  endfacet
  facet normal 0 0 1
    outer loop
      vertex -10.314 -14.9901 1.2
      vertex -15 -10 1.2
      vertex -10.9369 -14.9114 1.2
    endloop
  endfacet
  facet normal 0 0 1
    outer loop
      vertex -15 10 1.2
      vertex -12.1289 14.5241 1.2
      vertex -12.6791 14.2216 1.2
    endloop
  endfacet
  facet normal 0 0 1
    outer loop
      vertex -10.9369 -14.9114 1.2
      vertex -15 -10 1.2
      vertex -11.5451 -14.7553 1.2
    endloop
  endfacet
  facet normal 0 0 1
    outer loop
      vertex -15 10 1.2
      vertex -12.6791 14.2216 1.2
      vertex -13.1871 13.8526 1.2
    endloop
  endfacet
  facet normal 0 0 1
    outer loop
      vertex -11.5451 -14.7553 1.2
      vertex -15 -10 1.2
      vertex -12.1289 -14.5241 1.2
    endloop
  endfacet
  facet normal 0 0 1
    outer loop
      vertex -15 10 1.2
      vertex -13.1871 13.8526 1.2
      vertex -13.6448 13.4227 1.2
    endloop
  endfacet
  facet normal 0 0 1
    outer loop
      vertex -12.1289 -14.5241 1.2
      vertex -15 -10 1.2
      vertex -12.6791 -14.2216 1.2
    endloop
  endfacet
  facet normal 0 0 1
    outer loop
      vertex -15 10 1.2
      vertex -13.6448 13.4227 1.2
      vertex -14.0451 12.9389 1.2
    endloop
  endfacet
  facet normal 0 0 1
    outer loop
      vertex -12.6791 -14.2216 1.2
      vertex -15 -10 1.2
      vertex -13.1871 -13.8526 1.2
    endloop
  endfacet
  facet normal 0 0 1
    outer loop
      vertex -15 10 1.2
      vertex -14.0451 12.9389 1.2
      vertex -14.3815 12.4088 1.2
    endloop
  endfacet
  facet normal 0 0 1
    outer loop
      vertex -13.1871 -13.8526 1.2
      vertex -15 -10 1.2
      vertex -13.6448 -13.4227 1.2
    endloop
  endfacet
  facet normal 0 0 1
    outer loop
      vertex -15 10 1.2
      vertex -14.3815 12.4088 1.2
      vertex -14.6489 11.8406 1.2
    endloop
  endfacet
  facet normal 0 0 1
    outer loop
      vertex -13.6448 -13.4227 1.2
      vertex -15 -10 1.2
      vertex -14.0451 -12.9389 1.2
    endloop
  endfacet
  facet normal 0 0 1
    outer loop
      vertex -15 10 1.2
      vertex -14.6489 11.8406 1.2
      vertex -14.8429 11.2434 1.2
    endloop
  endfacet
  facet normal 0 0 1
    outer loop
      vertex -14.0451 -12.9389 1.2
      vertex -15 -10 1.2
      vertex -14.3815 -12.4088 1.2
    endloop
  endfacet
  facet normal 0 0 1
    outer loop
      vertex -15 10 1.2
      vertex -14.8429 11.2434 1.2
      vertex -14.9606 10.6267 1.2
    endloop
  endfacet
  facet normal 0 0 1
    outer loop
      vertex -14.3815 -12.4088 1.2
      vertex -15 -10 1.2
      vertex -14.6489 -11.8406 1.2
    endloop
  endfacet
  facet normal 0 0 1
    outer loop
      vertex -14.6489 -11.8406 1.2
      vertex -15 -10 1.2
      vertex -14.8429 -11.2434 1.2
    endloop
  endfacet
  facet normal 0 0 1
    outer loop
      vertex -14.8429 -11.2434 1.2
      vertex -15 -10 1.2
      vertex -14.9606 -10.6267 1.2
    endloop
  endfacet
  facet normal 0.951059 -0.309009 0
    outer loop
      vertex -1.74345 0.447641 1.2
      vertex -1.6736 0.662623 0
      vertex -1.6736 0.662623 1.2
    endloop
  endfacet
  facet normal 0.951059 -0.309009 0
    outer loop
      vertex -1.6736 0.662623 0
      vertex -1.74345 0.447641 1.2
      vertex -1.74345 0.447641 0
    endloop
  endfacet
  facet normal -0.844327 -0.535828 0
    outer loop
      vertex 1.57735 0.867156 0
      vertex 1.45623 1.05801 1.2
      vertex 1.45623 1.05801 0
    endloop
  endfacet
  facet normal -0.844327 -0.535828 0
    outer loop
      vertex 1.45623 1.05801 1.2
      vertex 1.57735 0.867156 0
      vertex 1.57735 0.867156 1.2
    endloop
  endfacet
  facet normal -0.248708 -0.968578 0
    outer loop
      vertex 0.337286 1.76812 0
      vertex 0.556231 1.7119 1.2
      vertex 0.337286 1.76812 1.2
    endloop
  endfacet
  facet normal -0.248708 -0.968578 -0
    outer loop
      vertex 0.556231 1.7119 1.2
      vertex 0.337286 1.76812 0
      vertex 0.556231 1.7119 0
    endloop
  endfacet
  facet normal -0.368115 -0.92978 0
    outer loop
      vertex 0.556231 1.7119 0
      vertex 0.766402 1.62869 1.2
      vertex 0.556231 1.7119 1.2
    endloop
  endfacet
  facet normal -0.368115 -0.92978 -0
    outer loop
      vertex 0.766402 1.62869 1.2
      vertex 0.556231 1.7119 0
      vertex 0.766402 1.62869 0
    endloop
  endfacet
  facet normal 0.368115 -0.92978 0
    outer loop
      vertex -0.766402 1.62869 0
      vertex -0.556231 1.7119 1.2
      vertex -0.766402 1.62869 1.2
    endloop
  endfacet
  facet normal 0.368115 -0.92978 0
    outer loop
      vertex -0.556231 1.7119 1.2
      vertex -0.766402 1.62869 0
      vertex -0.556231 1.7119 0
    endloop
  endfacet
  facet normal 0.90482 -0.425794 0
    outer loop
      vertex -1.6736 0.662623 1.2
      vertex -1.57735 0.867156 0
      vertex -1.57735 0.867156 1.2
    endloop
  endfacet
  facet normal 0.90482 -0.425794 0
    outer loop
      vertex -1.57735 0.867156 0
      vertex -1.6736 0.662623 1.2
      vertex -1.6736 0.662623 0
    endloop
  endfacet
  facet normal -0.998028 0.0627752 0
    outer loop
      vertex 1.78581 -0.225599 0
      vertex 1.8 0 1.2
      vertex 1.8 0 0
    endloop
  endfacet
  facet normal -0.998028 0.0627752 0
    outer loop
      vertex 1.8 0 1.2
      vertex 1.78581 -0.225599 0
      vertex 1.78581 -0.225599 1.2
    endloop
  endfacet
  facet normal -0.368115 0.92978 0
    outer loop
      vertex 0.766402 -1.62869 0
      vertex 0.556231 -1.7119 1.2
      vertex 0.766402 -1.62869 1.2
    endloop
  endfacet
  facet normal -0.368115 0.92978 0
    outer loop
      vertex 0.556231 -1.7119 1.2
      vertex 0.766402 -1.62869 0
      vertex 0.556231 -1.7119 0
    endloop
  endfacet
  facet normal -0.68455 -0.728966 0
    outer loop
      vertex 1.14736 1.38692 0
      vertex 1.31214 1.23218 1.2
      vertex 1.14736 1.38692 1.2
    endloop
  endfacet
  facet normal -0.68455 -0.728966 -0
    outer loop
      vertex 1.31214 1.23218 1.2
      vertex 1.14736 1.38692 0
      vertex 1.31214 1.23218 0
    endloop
  endfacet
  facet normal -0.587802 -0.809005 0
    outer loop
      vertex 0.964488 1.51979 0
      vertex 1.14736 1.38692 1.2
      vertex 0.964488 1.51979 1.2
    endloop
  endfacet
  facet normal -0.587802 -0.809005 -0
    outer loop
      vertex 1.14736 1.38692 1.2
      vertex 0.964488 1.51979 0
      vertex 1.14736 1.38692 0
    endloop
  endfacet
  facet normal 0.770504 -0.637435 0
    outer loop
      vertex -1.45623 1.05801 1.2
      vertex -1.31214 1.23218 0
      vertex -1.31214 1.23218 1.2
    endloop
  endfacet
  facet normal 0.770504 -0.637435 0
    outer loop
      vertex -1.31214 1.23218 0
      vertex -1.45623 1.05801 1.2
      vertex -1.45623 1.05801 0
    endloop
  endfacet
  facet normal 0.68455 -0.728966 0
    outer loop
      vertex -1.31214 1.23218 0
      vertex -1.14736 1.38692 1.2
      vertex -1.31214 1.23218 1.2
    endloop
  endfacet
  facet normal 0.68455 -0.728966 0
    outer loop
      vertex -1.14736 1.38692 1.2
      vertex -1.31214 1.23218 0
      vertex -1.14736 1.38692 0
    endloop
  endfacet
  facet normal -0.998028 -0.0627752 0
    outer loop
      vertex 1.8 0 0
      vertex 1.78581 0.225599 1.2
      vertex 1.78581 0.225599 0
    endloop
  endfacet
  facet normal -0.998028 -0.0627752 0
    outer loop
      vertex 1.78581 0.225599 1.2
      vertex 1.8 0 0
      vertex 1.8 0 1.2
    endloop
  endfacet
  facet normal 0.248708 0.968578 -0
    outer loop
      vertex -0.337286 -1.76812 0
      vertex -0.556231 -1.7119 1.2
      vertex -0.337286 -1.76812 1.2
    endloop
  endfacet
  facet normal 0.248708 0.968578 0
    outer loop
      vertex -0.556231 -1.7119 1.2
      vertex -0.337286 -1.76812 0
      vertex -0.556231 -1.7119 0
    endloop
  endfacet
  facet normal -0.248708 0.968578 0
    outer loop
      vertex 0.556231 -1.7119 0
      vertex 0.337286 -1.76812 1.2
      vertex 0.556231 -1.7119 1.2
    endloop
  endfacet
  facet normal -0.248708 0.968578 0
    outer loop
      vertex 0.337286 -1.76812 1.2
      vertex 0.556231 -1.7119 0
      vertex 0.337286 -1.76812 0
    endloop
  endfacet
  facet normal -0.770504 -0.637435 0
    outer loop
      vertex 1.45623 1.05801 0
      vertex 1.31214 1.23218 1.2
      vertex 1.31214 1.23218 0
    endloop
  endfacet
  facet normal -0.770504 -0.637435 0
    outer loop
      vertex 1.31214 1.23218 1.2
      vertex 1.45623 1.05801 0
      vertex 1.45623 1.05801 1.2
    endloop
  endfacet
  facet normal 0 -1 0
    outer loop
      vertex -0.113023 1.79645 0
      vertex 0.113023 1.79645 1.2
      vertex -0.113023 1.79645 1.2
    endloop
  endfacet
  facet normal 0 -1 -0
    outer loop
      vertex 0.113023 1.79645 1.2
      vertex -0.113023 1.79645 0
      vertex 0.113023 1.79645 0
    endloop
  endfacet
  facet normal -0.481758 -0.876304 0
    outer loop
      vertex 0.766402 1.62869 0
      vertex 0.964488 1.51979 1.2
      vertex 0.766402 1.62869 1.2
    endloop
  endfacet
  facet normal -0.481758 -0.876304 -0
    outer loop
      vertex 0.964488 1.51979 1.2
      vertex 0.766402 1.62869 0
      vertex 0.964488 1.51979 0
    endloop
  endfacet
  facet normal 0.998028 -0.0627752 0
    outer loop
      vertex -1.8 0 1.2
      vertex -1.78581 0.225599 0
      vertex -1.78581 0.225599 1.2
    endloop
  endfacet
  facet normal 0.998028 -0.0627752 0
    outer loop
      vertex -1.78581 0.225599 0
      vertex -1.8 0 1.2
      vertex -1.8 0 0
    endloop
  endfacet
  facet normal 0.982285 -0.187395 0
    outer loop
      vertex -1.78581 0.225599 1.2
      vertex -1.74345 0.447641 0
      vertex -1.74345 0.447641 1.2
    endloop
  endfacet
  facet normal 0.982285 -0.187395 0
    outer loop
      vertex -1.74345 0.447641 0
      vertex -1.78581 0.225599 1.2
      vertex -1.78581 0.225599 0
    endloop
  endfacet
  facet normal 0.844327 -0.535828 0
    outer loop
      vertex -1.57735 0.867156 1.2
      vertex -1.45623 1.05801 0
      vertex -1.45623 1.05801 1.2
    endloop
  endfacet
  facet normal 0.844327 -0.535828 0
    outer loop
      vertex -1.45623 1.05801 0
      vertex -1.57735 0.867156 1.2
      vertex -1.57735 0.867156 0
    endloop
  endfacet
  facet normal 0.125329 -0.992115 0
    outer loop
      vertex -0.337286 1.76812 0
      vertex -0.113023 1.79645 1.2
      vertex -0.337286 1.76812 1.2
    endloop
  endfacet
  facet normal 0.125329 -0.992115 0
    outer loop
      vertex -0.113023 1.79645 1.2
      vertex -0.337286 1.76812 0
      vertex -0.113023 1.79645 0
    endloop
  endfacet
  facet normal 0.248708 -0.968578 0
    outer loop
      vertex -0.556231 1.7119 0
      vertex -0.337286 1.76812 1.2
      vertex -0.556231 1.7119 1.2
    endloop
  endfacet
  facet normal 0.248708 -0.968578 0
    outer loop
      vertex -0.337286 1.76812 1.2
      vertex -0.556231 1.7119 0
      vertex -0.337286 1.76812 0
    endloop
  endfacet
  facet normal 0.481758 -0.876304 0
    outer loop
      vertex -0.964488 1.51979 0
      vertex -0.766402 1.62869 1.2
      vertex -0.964488 1.51979 1.2
    endloop
  endfacet
  facet normal 0.481758 -0.876304 0
    outer loop
      vertex -0.766402 1.62869 1.2
      vertex -0.964488 1.51979 0
      vertex -0.766402 1.62869 0
    endloop
  endfacet
  facet normal 0.587802 -0.809005 0
    outer loop
      vertex -1.14736 1.38692 0
      vertex -0.964488 1.51979 1.2
      vertex -1.14736 1.38692 1.2
    endloop
  endfacet
  facet normal 0.587802 -0.809005 0
    outer loop
      vertex -0.964488 1.51979 1.2
      vertex -1.14736 1.38692 0
      vertex -0.964488 1.51979 0
    endloop
  endfacet
  facet normal -0.982285 0.187395 0
    outer loop
      vertex 1.74345 -0.447641 0
      vertex 1.78581 -0.225599 1.2
      vertex 1.78581 -0.225599 0
    endloop
  endfacet
  facet normal -0.982285 0.187395 0
    outer loop
      vertex 1.78581 -0.225599 1.2
      vertex 1.74345 -0.447641 0
      vertex 1.74345 -0.447641 1.2
    endloop
  endfacet
  facet normal -0.125329 0.992115 0
    outer loop
      vertex 0.337286 -1.76812 0
      vertex 0.113023 -1.79645 1.2
      vertex 0.337286 -1.76812 1.2
    endloop
  endfacet
  facet normal -0.125329 0.992115 0
    outer loop
      vertex 0.113023 -1.79645 1.2
      vertex 0.337286 -1.76812 0
      vertex 0.113023 -1.79645 0
    endloop
  endfacet
  facet normal -0.90482 -0.425794 0
    outer loop
      vertex 1.6736 0.662623 0
      vertex 1.57735 0.867156 1.2
      vertex 1.57735 0.867156 0
    endloop
  endfacet
  facet normal -0.90482 -0.425794 0
    outer loop
      vertex 1.57735 0.867156 1.2
      vertex 1.6736 0.662623 0
      vertex 1.6736 0.662623 1.2
    endloop
  endfacet
  facet normal -0.951059 -0.309009 0
    outer loop
      vertex 1.74345 0.447641 0
      vertex 1.6736 0.662623 1.2
      vertex 1.6736 0.662623 0
    endloop
  endfacet
  facet normal -0.951059 -0.309009 0
    outer loop
      vertex 1.6736 0.662623 1.2
      vertex 1.74345 0.447641 0
      vertex 1.74345 0.447641 1.2
    endloop
  endfacet
  facet normal -0.982285 -0.187395 0
    outer loop
      vertex 1.78581 0.225599 0
      vertex 1.74345 0.447641 1.2
      vertex 1.74345 0.447641 0
    endloop
  endfacet
  facet normal -0.982285 -0.187395 0
    outer loop
      vertex 1.74345 0.447641 1.2
      vertex 1.78581 0.225599 0
      vertex 1.78581 0.225599 1.2
    endloop
  endfacet
  facet normal -0.125329 -0.992115 0
    outer loop
      vertex 0.113023 1.79645 0
      vertex 0.337286 1.76812 1.2
      vertex 0.113023 1.79645 1.2
    endloop
  endfacet
  facet normal -0.125329 -0.992115 -0
    outer loop
      vertex 0.337286 1.76812 1.2
      vertex 0.113023 1.79645 0
      vertex 0.337286 1.76812 0
    endloop
  endfacet
  facet normal -0.481758 0.876304 0
    outer loop
      vertex 0.964488 -1.51979 0
      vertex 0.766402 -1.62869 1.2
      vertex 0.964488 -1.51979 1.2
    endloop
  endfacet
  facet normal -0.481758 0.876304 0
    outer loop
      vertex 0.766402 -1.62869 1.2
      vertex 0.964488 -1.51979 0
      vertex 0.766402 -1.62869 0
    endloop
  endfacet
  facet normal -0.68455 0.728966 0
    outer loop
      vertex 1.31214 -1.23218 0
      vertex 1.14736 -1.38692 1.2
      vertex 1.31214 -1.23218 1.2
    endloop
  endfacet
  facet normal -0.68455 0.728966 0
    outer loop
      vertex 1.14736 -1.38692 1.2
      vertex 1.31214 -1.23218 0
      vertex 1.14736 -1.38692 0
    endloop
  endfacet
  facet normal -0.770504 0.637435 0
    outer loop
      vertex 1.31214 -1.23218 0
      vertex 1.45623 -1.05801 1.2
      vertex 1.45623 -1.05801 0
    endloop
  endfacet
  facet normal -0.770504 0.637435 0
    outer loop
      vertex 1.45623 -1.05801 1.2
      vertex 1.31214 -1.23218 0
      vertex 1.31214 -1.23218 1.2
    endloop
  endfacet
  facet normal 0.125329 0.992115 -0
    outer loop
      vertex -0.113023 -1.79645 0
      vertex -0.337286 -1.76812 1.2
      vertex -0.113023 -1.79645 1.2
    endloop
  endfacet
  facet normal 0.125329 0.992115 0
    outer loop
      vertex -0.337286 -1.76812 1.2
      vertex -0.113023 -1.79645 0
      vertex -0.337286 -1.76812 0
    endloop
  endfacet
  facet normal 0.998028 0.0627752 0
    outer loop
      vertex -1.78581 -0.225599 1.2
      vertex -1.8 0 0
      vertex -1.8 0 1.2
    endloop
  endfacet
  facet normal 0.998028 0.0627752 0
    outer loop
      vertex -1.8 0 0
      vertex -1.78581 -0.225599 1.2
      vertex -1.78581 -0.225599 0
    endloop
  endfacet
  facet normal 0.951059 0.309009 0
    outer loop
      vertex -1.6736 -0.662623 1.2
      vertex -1.74345 -0.447641 0
      vertex -1.74345 -0.447641 1.2
    endloop
  endfacet
  facet normal 0.951059 0.309009 0
    outer loop
      vertex -1.74345 -0.447641 0
      vertex -1.6736 -0.662623 1.2
      vertex -1.6736 -0.662623 0
    endloop
  endfacet
  facet normal 0.770504 0.637435 0
    outer loop
      vertex -1.31214 -1.23218 1.2
      vertex -1.45623 -1.05801 0
      vertex -1.45623 -1.05801 1.2
    endloop
  endfacet
  facet normal 0.770504 0.637435 0
    outer loop
      vertex -1.45623 -1.05801 0
      vertex -1.31214 -1.23218 1.2
      vertex -1.31214 -1.23218 0
    endloop
  endfacet
  facet normal -0.951059 0.309009 0
    outer loop
      vertex 1.6736 -0.662623 0
      vertex 1.74345 -0.447641 1.2
      vertex 1.74345 -0.447641 0
    endloop
  endfacet
  facet normal -0.951059 0.309009 0
    outer loop
      vertex 1.74345 -0.447641 1.2
      vertex 1.6736 -0.662623 0
      vertex 1.6736 -0.662623 1.2
    endloop
  endfacet
  facet normal -0.90482 0.425794 0
    outer loop
      vertex 1.57735 -0.867156 0
      vertex 1.6736 -0.662623 1.2
      vertex 1.6736 -0.662623 0
    endloop
  endfacet
  facet normal -0.90482 0.425794 0
    outer loop
      vertex 1.6736 -0.662623 1.2
      vertex 1.57735 -0.867156 0
      vertex 1.57735 -0.867156 1.2
    endloop
  endfacet
  facet normal -0.587802 0.809005 0
    outer loop
      vertex 1.14736 -1.38692 0
      vertex 0.964488 -1.51979 1.2
      vertex 1.14736 -1.38692 1.2
    endloop
  endfacet
  facet normal -0.587802 0.809005 0
    outer loop
      vertex 0.964488 -1.51979 1.2
      vertex 1.14736 -1.38692 0
      vertex 0.964488 -1.51979 0
    endloop
  endfacet
  facet normal -0.844327 0.535828 0
    outer loop
      vertex 1.45623 -1.05801 0
      vertex 1.57735 -0.867156 1.2
      vertex 1.57735 -0.867156 0
    endloop
  endfacet
  facet normal -0.844327 0.535828 0
    outer loop
      vertex 1.57735 -0.867156 1.2
      vertex 1.45623 -1.05801 0
      vertex 1.45623 -1.05801 1.2
    endloop
  endfacet
  facet normal 0.587802 0.809005 -0
    outer loop
      vertex -0.964488 -1.51979 0
      vertex -1.14736 -1.38692 1.2
      vertex -0.964488 -1.51979 1.2
    endloop
  endfacet
  facet normal 0.587802 0.809005 0
    outer loop
      vertex -1.14736 -1.38692 1.2
      vertex -0.964488 -1.51979 0
      vertex -1.14736 -1.38692 0
    endloop
  endfacet
  facet normal 0 1 -0
    outer loop
      vertex 0.113023 -1.79645 0
      vertex -0.113023 -1.79645 1.2
      vertex 0.113023 -1.79645 1.2
    endloop
  endfacet
  facet normal 0 1 0
    outer loop
      vertex -0.113023 -1.79645 1.2
      vertex 0.113023 -1.79645 0
      vertex -0.113023 -1.79645 0
    endloop
  endfacet
  facet normal 0 0 -1
    outer loop
      vertex 10.314 -14.9901 0
      vertex 15 -10 0
      vertex 14.9606 -10.6267 0
    endloop
  endfacet
  facet normal 0 0 -1
    outer loop
      vertex 15 -10 0
      vertex 1.8 0 0
      vertex 15 10 0
    endloop
  endfacet
  facet normal 0 0 -1
    outer loop
      vertex 10.314 -14.9901 0
      vertex 14.9606 -10.6267 0
      vertex 14.8429 -11.2434 0
    endloop
  endfacet
  facet normal 0 0 -1
    outer loop
      vertex 1.78581 0.225599 0
      vertex 15 10 0
      vertex 1.8 0 0
    endloop
  endfacet
  facet normal 0 0 -1
    outer loop
      vertex 10.314 -14.9901 0
      vertex 14.8429 -11.2434 0
      vertex 14.6489 -11.8406 0
    endloop
  endfacet
  facet normal 0 0 -1
    outer loop
      vertex 1.74345 0.447641 0
      vertex 15 10 0
      vertex 1.78581 0.225599 0
    endloop
  endfacet
  facet normal 0 0 -1
    outer loop
      vertex 10.314 -14.9901 0
      vertex 14.6489 -11.8406 0
      vertex 14.3815 -12.4088 0
    endloop
  endfacet
  facet normal 0 0 -1
    outer loop
      vertex 1.6736 0.662623 0
      vertex 15 10 0
      vertex 1.74345 0.447641 0
    endloop
  endfacet
  facet normal 0 0 -1
    outer loop
      vertex 10.314 -14.9901 0
      vertex 14.3815 -12.4088 0
      vertex 14.0451 -12.9389 0
    endloop
  endfacet
  facet normal 0 0 -1
    outer loop
      vertex 1.57735 0.867156 0
      vertex 15 10 0
      vertex 1.6736 0.662623 0
    endloop
  endfacet
  facet normal 0 0 -1
    outer loop
      vertex 10.314 -14.9901 0
      vertex 14.0451 -12.9389 0
      vertex 13.6448 -13.4227 0
    endloop
  endfacet
  facet normal 0 0 -1
    outer loop
      vertex 1.45623 1.05801 0
      vertex 15 10 0
      vertex 1.57735 0.867156 0
    endloop
  endfacet
  facet normal 0 0 -1
    outer loop
      vertex 10.314 -14.9901 0
      vertex 13.6448 -13.4227 0
      vertex 13.1871 -13.8526 0
    endloop
  endfacet
  facet normal 0 0 -1
    outer loop
      vertex 1.31214 1.23218 0
      vertex 15 10 0
      vertex 1.45623 1.05801 0
    endloop
  endfacet
  facet normal 0 0 -1
    outer loop
      vertex 10.314 -14.9901 0
      vertex 13.1871 -13.8526 0
      vertex 12.6791 -14.2216 0
    endloop
  endfacet
  facet normal 0 -0 -1
    outer loop
      vertex 10.314 14.9901 0
      vertex 15 10 0
      vertex 1.31214 1.23218 0
    endloop
  endfacet
  facet normal 0 0 -1
    outer loop
      vertex 10.314 -14.9901 0
      vertex 12.6791 -14.2216 0
      vertex 12.1289 -14.5241 0
    endloop
  endfacet
  facet normal 0 0 -1
    outer loop
      vertex 15 10 0
      vertex 10.314 14.9901 0
      vertex 14.9606 10.6267 0
    endloop
  endfacet
  facet normal 0 0 -1
    outer loop
      vertex 10.314 -14.9901 0
      vertex 12.1289 -14.5241 0
      vertex 11.5451 -14.7553 0
    endloop
  endfacet
  facet normal 0 0 -1
    outer loop
      vertex 14.9606 10.6267 0
      vertex 10.314 14.9901 0
      vertex 14.8429 11.2434 0
    endloop
  endfacet
  facet normal 0 0 -1
    outer loop
      vertex 10.314 -14.9901 0
      vertex 11.5451 -14.7553 0
      vertex 10.9369 -14.9114 0
    endloop
  endfacet
  facet normal 0 0 -1
    outer loop
      vertex 14.8429 11.2434 0
      vertex 10.314 14.9901 0
      vertex 14.6489 11.8406 0
    endloop
  endfacet
  facet normal -0 0 -1
    outer loop
      vertex 15 -10 0
      vertex 10.314 -14.9901 0
      vertex 1.31214 -1.23218 0
    endloop
  endfacet
  facet normal 0 0 -1
    outer loop
      vertex 14.3815 12.4088 0
      vertex 10.314 14.9901 0
      vertex 14.0451 12.9389 0
    endloop
  endfacet
  facet normal 0 0 -1
    outer loop
      vertex 14.0451 12.9389 0
      vertex 10.314 14.9901 0
      vertex 13.6448 13.4227 0
    endloop
  endfacet
  facet normal 0 0 -1
    outer loop
      vertex 15 -10 0
      vertex 1.78581 -0.225599 0
      vertex 1.8 0 0
    endloop
  endfacet
  facet normal 0 0 -1
    outer loop
      vertex 15 -10 0
      vertex 1.74345 -0.447641 0
      vertex 1.78581 -0.225599 0
    endloop
  endfacet
  facet normal 0 0 -1
    outer loop
      vertex 15 -10 0
      vertex 1.6736 -0.662623 0
      vertex 1.74345 -0.447641 0
    endloop
  endfacet
  facet normal 0 0 -1
    outer loop
      vertex 15 -10 0
      vertex 1.57735 -0.867156 0
      vertex 1.6736 -0.662623 0
    endloop
  endfacet
  facet normal 0 0 -1
    outer loop
      vertex 15 -10 0
      vertex 1.45623 -1.05801 0
      vertex 1.57735 -0.867156 0
    endloop
  endfacet
  facet normal 0 0 -1
    outer loop
      vertex 15 -10 0
      vertex 1.31214 -1.23218 0
      vertex 1.45623 -1.05801 0
    endloop
  endfacet
  facet normal 0 0 -1
    outer loop
      vertex 10.314 -14.9901 0
      vertex 1.14736 -1.38692 0
      vertex 1.31214 -1.23218 0
    endloop
  endfacet
  facet normal 0 0 -1
    outer loop
      vertex 10.314 -14.9901 0
      vertex 0.964488 -1.51979 0
      vertex 1.14736 -1.38692 0
    endloop
  endfacet
  facet normal 0 0 -1
    outer loop
      vertex 10.314 -14.9901 0
      vertex 0.766402 -1.62869 0
      vertex 0.964488 -1.51979 0
    endloop
  endfacet
  facet normal 0 0 -1
    outer loop
      vertex 10.314 -14.9901 0
      vertex 0.556231 -1.7119 0
      vertex 0.766402 -1.62869 0
    endloop
  endfacet
  facet normal 0 0 -1
    outer loop
      vertex 10.314 -14.9901 0
      vertex 0.337286 -1.76812 0
      vertex 0.556231 -1.7119 0
    endloop
  endfacet
  facet normal 0 0 -1
    outer loop
      vertex 10.314 -14.9901 0
      vertex 0.113023 -1.79645 0
      vertex 0.337286 -1.76812 0
    endloop
  endfacet
  facet normal 0 0 -1
    outer loop
      vertex 10.314 -14.9901 0
      vertex -0.113023 -1.79645 0
      vertex 0.113023 -1.79645 0
    endloop
  endfacet
  facet normal 0 0 -1
    outer loop
      vertex -10.314 -14.9901 0
      vertex -0.113023 -1.79645 0
      vertex 10.314 -14.9901 0
    endloop
  endfacet
  facet normal -0 0 -1
    outer loop
      vertex -0.113023 -1.79645 0
      vertex -10.314 -14.9901 0
      vertex -0.337286 -1.76812 0
    endloop
  endfacet
  facet normal -0 0 -1
    outer loop
      vertex -0.337286 -1.76812 0
      vertex -10.314 -14.9901 0
      vertex -0.556231 -1.7119 0
    endloop
  endfacet
  facet normal -0 0 -1
    outer loop
      vertex -0.556231 -1.7119 0
      vertex -10.314 -14.9901 0
      vertex -0.766402 -1.62869 0
    endloop
  endfacet
  facet normal -0 0 -1
    outer loop
      vertex -0.766402 -1.62869 0
      vertex -10.314 -14.9901 0
      vertex -0.964488 -1.51979 0
    endloop
  endfacet
  facet normal -0 0 -1
    outer loop
      vertex -0.964488 -1.51979 0
      vertex -10.314 -14.9901 0
      vertex -1.14736 -1.38692 0
    endloop
  endfacet
  facet normal -0 0 -1
    outer loop
      vertex -1.74345 -0.447641 0
      vertex -15 -10 0
      vertex -1.78581 -0.225599 0
    endloop
  endfacet
  facet normal -0 0 -1
    outer loop
      vertex -1.6736 -0.662623 0
      vertex -15 -10 0
      vertex -1.74345 -0.447641 0
    endloop
  endfacet
  facet normal -0 0 -1
    outer loop
      vertex -1.57735 -0.867156 0
      vertex -15 -10 0
      vertex -1.6736 -0.662623 0
    endloop
  endfacet
  facet normal -0 0 -1
    outer loop
      vertex -1.45623 -1.05801 0
      vertex -15 -10 0
      vertex -1.57735 -0.867156 0
    endloop
  endfacet
  facet normal -0 0 -1
    outer loop
      vertex -1.31214 -1.23218 0
      vertex -15 -10 0
      vertex -1.45623 -1.05801 0
    endloop
  endfacet
  facet normal 0 0 -1
    outer loop
      vertex -15 -10 0
      vertex -1.31214 -1.23218 0
      vertex -10.314 -14.9901 0
    endloop
  endfacet
  facet normal -0 0 -1
    outer loop
      vertex -1.14736 -1.38692 0
      vertex -10.314 -14.9901 0
      vertex -1.31214 -1.23218 0
    endloop
  endfacet
  facet normal 0 0 -1
    outer loop
      vertex 13.6448 13.4227 0
      vertex 10.314 14.9901 0
      vertex 13.1871 13.8526 0
    endloop
  endfacet
  facet normal 0 0 -1
    outer loop
      vertex 13.1871 13.8526 0
      vertex 10.314 14.9901 0
      vertex 12.6791 14.2216 0
    endloop
  endfacet
  facet normal 0 0 -1
    outer loop
      vertex 12.1289 14.5241 0
      vertex 10.314 14.9901 0
      vertex 11.5451 14.7553 0
    endloop
  endfacet
  facet normal 0 0 -1
    outer loop
      vertex 11.5451 14.7553 0
      vertex 10.314 14.9901 0
      vertex 10.9369 14.9114 0
    endloop
  endfacet
  facet normal 0 0 -1
    outer loop
      vertex 12.6791 14.2216 0
      vertex 10.314 14.9901 0
      vertex 12.1289 14.5241 0
    endloop
  endfacet
  facet normal 0 0 -1
    outer loop
      vertex 14.6489 11.8406 0
      vertex 10.314 14.9901 0
      vertex 14.3815 12.4088 0
    endloop
  endfacet
  facet normal 0 0 -1
    outer loop
      vertex 1.14736 1.38692 0
      vertex 10.314 14.9901 0
      vertex 1.31214 1.23218 0
    endloop
  endfacet
  facet normal 0 0 -1
    outer loop
      vertex 0.964488 1.51979 0
      vertex 10.314 14.9901 0
      vertex 1.14736 1.38692 0
    endloop
  endfacet
  facet normal 0 0 -1
    outer loop
      vertex 0.766402 1.62869 0
      vertex 10.314 14.9901 0
      vertex 0.964488 1.51979 0
    endloop
  endfacet
  facet normal 0 0 -1
    outer loop
      vertex 0.556231 1.7119 0
      vertex 10.314 14.9901 0
      vertex 0.766402 1.62869 0
    endloop
  endfacet
  facet normal 0 0 -1
    outer loop
      vertex 0.337286 1.76812 0
      vertex 10.314 14.9901 0
      vertex 0.556231 1.7119 0
    endloop
  endfacet
  facet normal 0 0 -1
    outer loop
      vertex 0.113023 1.79645 0
      vertex 10.314 14.9901 0
      vertex 0.337286 1.76812 0
    endloop
  endfacet
  facet normal 0 0 -1
    outer loop
      vertex -0.113023 1.79645 0
      vertex 10.314 14.9901 0
      vertex 0.113023 1.79645 0
    endloop
  endfacet
  facet normal 0 0 -1
    outer loop
      vertex -10.314 14.9901 0
      vertex -0.113023 1.79645 0
      vertex -0.337286 1.76812 0
    endloop
  endfacet
  facet normal 0 0 -1
    outer loop
      vertex -10.314 14.9901 0
      vertex -0.337286 1.76812 0
      vertex -0.556231 1.7119 0
    endloop
  endfacet
  facet normal 0 0 -1
    outer loop
      vertex -10.314 14.9901 0
      vertex -0.556231 1.7119 0
      vertex -0.766402 1.62869 0
    endloop
  endfacet
  facet normal 0 0 -1
    outer loop
      vertex -10.314 14.9901 0
      vertex -0.766402 1.62869 0
      vertex -0.964488 1.51979 0
    endloop
  endfacet
  facet normal 0 0 -1
    outer loop
      vertex -10.314 14.9901 0
      vertex -0.964488 1.51979 0
      vertex -1.14736 1.38692 0
    endloop
  endfacet
  facet normal 0 0 -1
    outer loop
      vertex -10.314 14.9901 0
      vertex -1.14736 1.38692 0
      vertex -1.31214 1.23218 0
    endloop
  endfacet
  facet normal -0 0 -1
    outer loop
      vertex -1.78581 -0.225599 0
      vertex -15 -10 0
      vertex -1.8 0 0
    endloop
  endfacet
  facet normal 0 0 -1
    outer loop
      vertex -15 10 0
      vertex -1.8 0 0
      vertex -15 -10 0
    endloop
  endfacet
  facet normal 0 0 -1
    outer loop
      vertex -1.8 0 0
      vertex -15 10 0
      vertex -1.78581 0.225599 0
    endloop
  endfacet
  facet normal 0 0 -1
    outer loop
      vertex -1.78581 0.225599 0
      vertex -15 10 0
      vertex -1.74345 0.447641 0
    endloop
  endfacet
  facet normal 0 0 -1
    outer loop
      vertex -0.113023 1.79645 0
      vertex -10.314 14.9901 0
      vertex 10.314 14.9901 0
    endloop
  endfacet
  facet normal 0 0 -1
    outer loop
      vertex -15 10 0
      vertex -1.31214 1.23218 0
      vertex -1.45623 1.05801 0
    endloop
  endfacet
  facet normal 0 0 -1
    outer loop
      vertex -15 10 0
      vertex -1.45623 1.05801 0
      vertex -1.57735 0.867156 0
    endloop
  endfacet
  facet normal 0 0 -1
    outer loop
      vertex -1.74345 0.447641 0
      vertex -15 10 0
      vertex -1.6736 0.662623 0
    endloop
  endfacet
  facet normal 0 0 -1
    outer loop
      vertex -15 -10 0
      vertex -10.314 -14.9901 0
      vertex -10.9369 -14.9114 0
    endloop
  endfacet
  facet normal 0 0 -1
    outer loop
      vertex -1.6736 0.662623 0
      vertex -15 10 0
      vertex -1.57735 0.867156 0
    endloop
  endfacet
  facet normal 0 0 -1
    outer loop
      vertex -15 -10 0
      vertex -10.9369 -14.9114 0
      vertex -11.5451 -14.7553 0
    endloop
  endfacet
  facet normal 0 0 -1
    outer loop
      vertex -1.31214 1.23218 0
      vertex -15 10 0
      vertex -10.314 14.9901 0
    endloop
  endfacet
  facet normal 0 0 -1
    outer loop
      vertex -15 -10 0
      vertex -11.5451 -14.7553 0
      vertex -12.1289 -14.5241 0
    endloop
  endfacet
  facet normal 0 0 -1
    outer loop
      vertex -10.314 14.9901 0
      vertex -15 10 0
      vertex -10.9369 14.9114 0
    endloop
  endfacet
  facet normal 0 0 -1
    outer loop
      vertex -15 -10 0
      vertex -12.1289 -14.5241 0
      vertex -12.6791 -14.2216 0
    endloop
  endfacet
  facet normal 0 0 -1
    outer loop
      vertex -10.9369 14.9114 0
      vertex -15 10 0
      vertex -11.5451 14.7553 0
    endloop
  endfacet
  facet normal 0 0 -1
    outer loop
      vertex -15 -10 0
      vertex -12.6791 -14.2216 0
      vertex -13.1871 -13.8526 0
    endloop
  endfacet
  facet normal 0 0 -1
    outer loop
      vertex -11.5451 14.7553 0
      vertex -15 10 0
      vertex -12.1289 14.5241 0
    endloop
  endfacet
  facet normal 0 0 -1
    outer loop
      vertex -15 -10 0
      vertex -13.1871 -13.8526 0
      vertex -13.6448 -13.4227 0
    endloop
  endfacet
  facet normal 0 0 -1
    outer loop
      vertex -12.1289 14.5241 0
      vertex -15 10 0
      vertex -12.6791 14.2216 0
    endloop
  endfacet
  facet normal 0 0 -1
    outer loop
      vertex -15 -10 0
      vertex -13.6448 -13.4227 0
      vertex -14.0451 -12.9389 0
    endloop
  endfacet
  facet normal 0 0 -1
    outer loop
      vertex -12.6791 14.2216 0
      vertex -15 10 0
      vertex -13.1871 13.8526 0
    endloop
  endfacet
  facet normal 0 0 -1
    outer loop
      vertex -15 -10 0
      vertex -14.0451 -12.9389 0
      vertex -14.3815 -12.4088 0
    endloop
  endfacet
  facet normal 0 0 -1
    outer loop
      vertex -13.1871 13.8526 0
      vertex -15 10 0
      vertex -13.6448 13.4227 0
    endloop
  endfacet
  facet normal 0 0 -1
    outer loop
      vertex -15 -10 0
      vertex -14.3815 -12.4088 0
      vertex -14.6489 -11.8406 0
    endloop
  endfacet
  facet normal 0 0 -1
    outer loop
      vertex -13.6448 13.4227 0
      vertex -15 10 0
      vertex -14.0451 12.9389 0
    endloop
  endfacet
  facet normal 0 0 -1
    outer loop
      vertex -15 -10 0
      vertex -14.6489 -11.8406 0
      vertex -14.8429 -11.2434 0
    endloop
  endfacet
  facet normal 0 0 -1
    outer loop
      vertex -14.0451 12.9389 0
      vertex -15 10 0
      vertex -14.3815 12.4088 0
    endloop
  endfacet
  facet normal 0 0 -1
    outer loop
      vertex -15 -10 0
      vertex -14.8429 -11.2434 0
      vertex -14.9606 -10.6267 0
    endloop
  endfacet
  facet normal 0 0 -1
    outer loop
      vertex -14.3815 12.4088 0
      vertex -15 10 0
      vertex -14.6489 11.8406 0
    endloop
  endfacet
  facet normal 0 0 -1
    outer loop
      vertex -14.6489 11.8406 0
      vertex -15 10 0
      vertex -14.8429 11.2434 0
    endloop
  endfacet
  facet normal 0 0 -1
    outer loop
      vertex -14.8429 11.2434 0
      vertex -15 10 0
      vertex -14.9606 10.6267 0
    endloop
  endfacet
  facet normal 0.982285 0.187395 0
    outer loop
      vertex -1.74345 -0.447641 1.2
      vertex -1.78581 -0.225599 0
      vertex -1.78581 -0.225599 1.2
    endloop
  endfacet
  facet normal 0.982285 0.187395 0
    outer loop
      vertex -1.78581 -0.225599 0
      vertex -1.74345 -0.447641 1.2
      vertex -1.74345 -0.447641 0
    endloop
  endfacet
  facet normal 0.68455 0.728966 -0
    outer loop
      vertex -1.14736 -1.38692 0
      vertex -1.31214 -1.23218 1.2
      vertex -1.14736 -1.38692 1.2
    endloop
  endfacet
  facet normal 0.68455 0.728966 0
    outer loop
      vertex -1.31214 -1.23218 1.2
      vertex -1.14736 -1.38692 0
      vertex -1.31214 -1.23218 0
    endloop
  endfacet
  facet normal 0.481758 0.876304 -0
    outer loop
      vertex -0.766402 -1.62869 0
      vertex -0.964488 -1.51979 1.2
      vertex -0.766402 -1.62869 1.2
    endloop
  endfacet
  facet normal 0.481758 0.876304 0
    outer loop
      vertex -0.964488 -1.51979 1.2
      vertex -0.766402 -1.62869 0
      vertex -0.964488 -1.51979 0
    endloop
  endfacet
  facet normal 0.368115 0.92978 -0
    outer loop
      vertex -0.556231 -1.7119 0
      vertex -0.766402 -1.62869 1.2
      vertex -0.556231 -1.7119 1.2
    endloop
  endfacet
  facet normal 0.368115 0.92978 0
    outer loop
      vertex -0.766402 -1.62869 1.2
      vertex -0.556231 -1.7119 0
      vertex -0.766402 -1.62869 0
    endloop
  endfacet
  facet normal 0.844327 0.535828 0
    outer loop
      vertex -1.45623 -1.05801 1.2
      vertex -1.57735 -0.867156 0
      vertex -1.57735 -0.867156 1.2
    endloop
  endfacet
  facet normal 0.844327 0.535828 0
    outer loop
      vertex -1.57735 -0.867156 0
      vertex -1.45623 -1.05801 1.2
      vertex -1.45623 -1.05801 0
    endloop
  endfacet
  facet normal 0.90482 0.425794 0
    outer loop
      vertex -1.57735 -0.867156 1.2
      vertex -1.6736 -0.662623 0
      vertex -1.6736 -0.662623 1.2
    endloop
  endfacet
  facet normal 0.90482 0.425794 0
    outer loop
      vertex -1.6736 -0.662623 0
      vertex -1.57735 -0.867156 1.2
      vertex -1.57735 -0.867156 0
    endloop
  endfacet
  facet normal -1 0 0
    outer loop
      vertex -15 -10 0
      vertex -15 10 1.2
      vertex -15 10 0
    endloop
  endfacet
  facet normal -1 -0 0
    outer loop
      vertex -15 10 1.2
      vertex -15 -10 0
      vertex -15 -10 1.2
    endloop
  endfacet
  facet normal -0.99803 -0.0627451 0
    outer loop
      vertex -14.9606 -10.6267 0
      vertex -15 -10 1.2
      vertex -15 -10 0
    endloop
  endfacet
  facet normal -0.99803 -0.0627451 0
    outer loop
      vertex -15 -10 1.2
      vertex -14.9606 -10.6267 0
      vertex -14.9606 -10.6267 1.2
    endloop
  endfacet
  facet normal 0.770462 0.637486 0
    outer loop
      vertex 14.0451 12.9389 1.2
      vertex 13.6448 13.4227 0
      vertex 13.6448 13.4227 1.2
    endloop
  endfacet
  facet normal 0.770462 0.637486 0
    outer loop
      vertex 13.6448 13.4227 0
      vertex 14.0451 12.9389 1.2
      vertex 14.0451 12.9389 0
    endloop
  endfacet
  facet normal -0.125348 -0.992113 0
    outer loop
      vertex -10.9369 -14.9114 0
      vertex -10.314 -14.9901 1.2
      vertex -10.9369 -14.9114 1.2
    endloop
  endfacet
  facet normal -0.125348 -0.992113 -0
    outer loop
      vertex -10.314 -14.9901 1.2
      vertex -10.9369 -14.9114 0
      vertex -10.314 -14.9901 0
    endloop
  endfacet
  facet normal 0.99803 -0.0627451 0
    outer loop
      vertex 14.9606 -10.6267 1.2
      vertex 15 -10 0
      vertex 15 -10 1.2
    endloop
  endfacet
  facet normal 0.99803 -0.0627451 0
    outer loop
      vertex 15 -10 0
      vertex 14.9606 -10.6267 1.2
      vertex 14.9606 -10.6267 0
    endloop
  endfacet
  facet normal 1 -0 0
    outer loop
      vertex 15 -10 1.2
      vertex 15 10 0
      vertex 15 10 1.2
    endloop
  endfacet
  facet normal 1 0 0
    outer loop
      vertex 15 10 0
      vertex 15 -10 1.2
      vertex 15 -10 0
    endloop
  endfacet
  facet normal -0.368203 0.929745 0
    outer loop
      vertex -11.5451 14.7553 0
      vertex -12.1289 14.5241 1.2
      vertex -11.5451 14.7553 1.2
    endloop
  endfacet
  facet normal -0.368203 0.929745 0
    outer loop
      vertex -12.1289 14.5241 1.2
      vertex -11.5451 14.7553 0
      vertex -12.1289 14.5241 0
    endloop
  endfacet
  facet normal 0 1 -0
    outer loop
      vertex 10.314 14.9901 0
      vertex -10.314 14.9901 1.2
      vertex 10.314 14.9901 1.2
    endloop
  endfacet
  facet normal 0 1 0
    outer loop
      vertex -10.314 14.9901 1.2
      vertex 10.314 14.9901 0
      vertex -10.314 14.9901 0
    endloop
  endfacet
  facet normal -0.99803 0.0627451 0
    outer loop
      vertex -15 10 0
      vertex -14.9606 10.6267 1.2
      vertex -14.9606 10.6267 0
    endloop
  endfacet
  facet normal -0.99803 0.0627451 0
    outer loop
      vertex -14.9606 10.6267 1.2
      vertex -15 10 0
      vertex -15 10 1.2
    endloop
  endfacet
  facet normal -0.248601 -0.968606 0
    outer loop
      vertex -11.5451 -14.7553 0
      vertex -10.9369 -14.9114 1.2
      vertex -11.5451 -14.7553 1.2
    endloop
  endfacet
  facet normal -0.248601 -0.968606 -0
    outer loop
      vertex -10.9369 -14.9114 1.2
      vertex -11.5451 -14.7553 0
      vertex -10.9369 -14.9114 0
    endloop
  endfacet
  facet normal 0 -1 0
    outer loop
      vertex -10.314 -14.9901 0
      vertex 10.314 -14.9901 1.2
      vertex -10.314 -14.9901 1.2
    endloop
  endfacet
  facet normal 0 -1 -0
    outer loop
      vertex 10.314 -14.9901 1.2
      vertex -10.314 -14.9901 0
      vertex 10.314 -14.9901 0
    endloop
  endfacet
  facet normal 0.951076 0.308956 0
    outer loop
      vertex 14.8429 11.2434 1.2
      vertex 14.6489 11.8406 0
      vertex 14.6489 11.8406 1.2
    endloop
  endfacet
  facet normal 0.951076 0.308956 0
    outer loop
      vertex 14.6489 11.8406 0
      vertex 14.8429 11.2434 1.2
      vertex 14.8429 11.2434 0
    endloop
  endfacet
  facet normal 0.125348 0.992113 -0
    outer loop
      vertex 10.9369 14.9114 0
      vertex 10.314 14.9901 1.2
      vertex 10.9369 14.9114 1.2
    endloop
  endfacet
  facet normal 0.125348 0.992113 0
    outer loop
      vertex 10.314 14.9901 1.2
      vertex 10.9369 14.9114 0
      vertex 10.314 14.9901 0
    endloop
  endfacet
  facet normal -0.684624 0.728896 0
    outer loop
      vertex -13.1871 13.8526 0
      vertex -13.6448 13.4227 1.2
      vertex -13.1871 13.8526 1.2
    endloop
  endfacet
  facet normal -0.684624 0.728896 0
    outer loop
      vertex -13.6448 13.4227 1.2
      vertex -13.1871 13.8526 0
      vertex -13.6448 13.4227 0
    endloop
  endfacet
  facet normal -0.951076 0.308956 0
    outer loop
      vertex -14.8429 11.2434 0
      vertex -14.6489 11.8406 1.2
      vertex -14.6489 11.8406 0
    endloop
  endfacet
  facet normal -0.951076 0.308956 0
    outer loop
      vertex -14.6489 11.8406 1.2
      vertex -14.8429 11.2434 0
      vertex -14.8429 11.2434 1.2
    endloop
  endfacet
  facet normal -0.951076 -0.308956 0
    outer loop
      vertex -14.6489 -11.8406 0
      vertex -14.8429 -11.2434 1.2
      vertex -14.8429 -11.2434 0
    endloop
  endfacet
  facet normal -0.951076 -0.308956 0
    outer loop
      vertex -14.8429 -11.2434 1.2
      vertex -14.6489 -11.8406 0
      vertex -14.6489 -11.8406 1.2
    endloop
  endfacet
  facet normal -0.770462 -0.637486 0
    outer loop
      vertex -13.6448 -13.4227 0
      vertex -14.0451 -12.9389 1.2
      vertex -14.0451 -12.9389 0
    endloop
  endfacet
  facet normal -0.770462 -0.637486 0
    outer loop
      vertex -14.0451 -12.9389 1.2
      vertex -13.6448 -13.4227 0
      vertex -13.6448 -13.4227 1.2
    endloop
  endfacet
  facet normal -0.904811 -0.425812 0
    outer loop
      vertex -14.3815 -12.4088 0
      vertex -14.6489 -11.8406 1.2
      vertex -14.6489 -11.8406 0
    endloop
  endfacet
  facet normal -0.904811 -0.425812 0
    outer loop
      vertex -14.6489 -11.8406 1.2
      vertex -14.3815 -12.4088 0
      vertex -14.3815 -12.4088 1.2
    endloop
  endfacet
  facet normal -0.368203 -0.929745 0
    outer loop
      vertex -12.1289 -14.5241 0
      vertex -11.5451 -14.7553 1.2
      vertex -12.1289 -14.5241 1.2
    endloop
  endfacet
  facet normal -0.368203 -0.929745 -0
    outer loop
      vertex -11.5451 -14.7553 1.2
      vertex -12.1289 -14.5241 0
      vertex -11.5451 -14.7553 0
    endloop
  endfacet
  facet normal 0.98227 0.187471 0
    outer loop
      vertex 14.9606 10.6267 1.2
      vertex 14.8429 11.2434 0
      vertex 14.8429 11.2434 1.2
    endloop
  endfacet
  facet normal 0.98227 0.187471 0
    outer loop
      vertex 14.8429 11.2434 0
      vertex 14.9606 10.6267 1.2
      vertex 14.9606 10.6267 0
    endloop
  endfacet
  facet normal 0.99803 0.0627451 0
    outer loop
      vertex 15 10 1.2
      vertex 14.9606 10.6267 0
      vertex 14.9606 10.6267 1.2
    endloop
  endfacet
  facet normal 0.99803 0.0627451 0
    outer loop
      vertex 14.9606 10.6267 0
      vertex 15 10 1.2
      vertex 15 10 0
    endloop
  endfacet
  facet normal 0.844336 0.535814 0
    outer loop
      vertex 14.3815 12.4088 1.2
      vertex 14.0451 12.9389 0
      vertex 14.0451 12.9389 1.2
    endloop
  endfacet
  facet normal 0.844336 0.535814 0
    outer loop
      vertex 14.0451 12.9389 0
      vertex 14.3815 12.4088 1.2
      vertex 14.3815 12.4088 0
    endloop
  endfacet
  facet normal 0.904811 0.425812 0
    outer loop
      vertex 14.6489 11.8406 1.2
      vertex 14.3815 12.4088 0
      vertex 14.3815 12.4088 1.2
    endloop
  endfacet
  facet normal 0.904811 0.425812 0
    outer loop
      vertex 14.3815 12.4088 0
      vertex 14.6489 11.8406 1.2
      vertex 14.6489 11.8406 0
    endloop
  endfacet
  facet normal 0.481784 0.87629 -0
    outer loop
      vertex 12.6791 14.2216 0
      vertex 12.1289 14.5241 1.2
      vertex 12.6791 14.2216 1.2
    endloop
  endfacet
  facet normal 0.481784 0.87629 0
    outer loop
      vertex 12.1289 14.5241 1.2
      vertex 12.6791 14.2216 0
      vertex 12.1289 14.5241 0
    endloop
  endfacet
  facet normal 0.684624 0.728896 -0
    outer loop
      vertex 13.6448 13.4227 0
      vertex 13.1871 13.8526 1.2
      vertex 13.6448 13.4227 1.2
    endloop
  endfacet
  facet normal 0.684624 0.728896 0
    outer loop
      vertex 13.1871 13.8526 1.2
      vertex 13.6448 13.4227 0
      vertex 13.1871 13.8526 0
    endloop
  endfacet
  facet normal 0.368203 0.929745 -0
    outer loop
      vertex 12.1289 14.5241 0
      vertex 11.5451 14.7553 1.2
      vertex 12.1289 14.5241 1.2
    endloop
  endfacet
  facet normal 0.368203 0.929745 0
    outer loop
      vertex 11.5451 14.7553 1.2
      vertex 12.1289 14.5241 0
      vertex 11.5451 14.7553 0
    endloop
  endfacet
  facet normal -0.587698 0.80908 0
    outer loop
      vertex -12.6791 14.2216 0
      vertex -13.1871 13.8526 1.2
      vertex -12.6791 14.2216 1.2
    endloop
  endfacet
  facet normal -0.587698 0.80908 0
    outer loop
      vertex -13.1871 13.8526 1.2
      vertex -12.6791 14.2216 0
      vertex -13.1871 13.8526 0
    endloop
  endfacet
  facet normal -0.481784 0.87629 0
    outer loop
      vertex -12.1289 14.5241 0
      vertex -12.6791 14.2216 1.2
      vertex -12.1289 14.5241 1.2
    endloop
  endfacet
  facet normal -0.481784 0.87629 0
    outer loop
      vertex -12.6791 14.2216 1.2
      vertex -12.1289 14.5241 0
      vertex -12.6791 14.2216 0
    endloop
  endfacet
  facet normal -0.770462 0.637486 0
    outer loop
      vertex -14.0451 12.9389 0
      vertex -13.6448 13.4227 1.2
      vertex -13.6448 13.4227 0
    endloop
  endfacet
  facet normal -0.770462 0.637486 0
    outer loop
      vertex -13.6448 13.4227 1.2
      vertex -14.0451 12.9389 0
      vertex -14.0451 12.9389 1.2
    endloop
  endfacet
  facet normal -0.98227 0.187471 0
    outer loop
      vertex -14.9606 10.6267 0
      vertex -14.8429 11.2434 1.2
      vertex -14.8429 11.2434 0
    endloop
  endfacet
  facet normal -0.98227 0.187471 0
    outer loop
      vertex -14.8429 11.2434 1.2
      vertex -14.9606 10.6267 0
      vertex -14.9606 10.6267 1.2
    endloop
  endfacet
  facet normal -0.98227 -0.187471 0
    outer loop
      vertex -14.8429 -11.2434 0
      vertex -14.9606 -10.6267 1.2
      vertex -14.9606 -10.6267 0
    endloop
  endfacet
  facet normal -0.98227 -0.187471 0
    outer loop
      vertex -14.9606 -10.6267 1.2
      vertex -14.8429 -11.2434 0
      vertex -14.8429 -11.2434 1.2
    endloop
  endfacet
  facet normal -0.844336 -0.535814 0
    outer loop
      vertex -14.0451 -12.9389 0
      vertex -14.3815 -12.4088 1.2
      vertex -14.3815 -12.4088 0
    endloop
  endfacet
  facet normal -0.844336 -0.535814 0
    outer loop
      vertex -14.3815 -12.4088 1.2
      vertex -14.0451 -12.9389 0
      vertex -14.0451 -12.9389 1.2
    endloop
  endfacet
  facet normal -0.481784 -0.87629 0
    outer loop
      vertex -12.6791 -14.2216 0
      vertex -12.1289 -14.5241 1.2
      vertex -12.6791 -14.2216 1.2
    endloop
  endfacet
  facet normal -0.481784 -0.87629 -0
    outer loop
      vertex -12.1289 -14.5241 1.2
      vertex -12.6791 -14.2216 0
      vertex -12.1289 -14.5241 0
    endloop
  endfacet
  facet normal -0.587698 -0.80908 0
    outer loop
      vertex -13.1871 -13.8526 0
      vertex -12.6791 -14.2216 1.2
      vertex -13.1871 -13.8526 1.2
    endloop
  endfacet
  facet normal -0.587698 -0.80908 -0
    outer loop
      vertex -12.6791 -14.2216 1.2
      vertex -13.1871 -13.8526 0
      vertex -12.6791 -14.2216 0
    endloop
  endfacet
  facet normal -0.684624 -0.728896 0
    outer loop
      vertex -13.6448 -13.4227 0
      vertex -13.1871 -13.8526 1.2
      vertex -13.6448 -13.4227 1.2
    endloop
  endfacet
  facet normal -0.684624 -0.728896 -0
    outer loop
      vertex -13.1871 -13.8526 1.2
      vertex -13.6448 -13.4227 0
      vertex -13.1871 -13.8526 0
    endloop
  endfacet
  facet normal 0.770462 -0.637486 0
    outer loop
      vertex 13.6448 -13.4227 1.2
      vertex 14.0451 -12.9389 0
      vertex 14.0451 -12.9389 1.2
    endloop
  endfacet
  facet normal 0.770462 -0.637486 0
    outer loop
      vertex 14.0451 -12.9389 0
      vertex 13.6448 -13.4227 1.2
      vertex 13.6448 -13.4227 0
    endloop
  endfacet
  facet normal 0.368203 -0.929745 0
    outer loop
      vertex 11.5451 -14.7553 0
      vertex 12.1289 -14.5241 1.2
      vertex 11.5451 -14.7553 1.2
    endloop
  endfacet
  facet normal 0.368203 -0.929745 0
    outer loop
      vertex 12.1289 -14.5241 1.2
      vertex 11.5451 -14.7553 0
      vertex 12.1289 -14.5241 0
    endloop
  endfacet
  facet normal 0.587698 0.80908 -0
    outer loop
      vertex 13.1871 13.8526 0
      vertex 12.6791 14.2216 1.2
      vertex 13.1871 13.8526 1.2
    endloop
  endfacet
  facet normal 0.587698 0.80908 0
    outer loop
      vertex 12.6791 14.2216 1.2
      vertex 13.1871 13.8526 0
      vertex 12.6791 14.2216 0
    endloop
  endfacet
  facet normal 0.248601 0.968606 -0
    outer loop
      vertex 11.5451 14.7553 0
      vertex 10.9369 14.9114 1.2
      vertex 11.5451 14.7553 1.2
    endloop
  endfacet
  facet normal 0.248601 0.968606 0
    outer loop
      vertex 10.9369 14.9114 1.2
      vertex 11.5451 14.7553 0
      vertex 10.9369 14.9114 0
    endloop
  endfacet
  facet normal -0.248601 0.968606 0
    outer loop
      vertex -10.9369 14.9114 0
      vertex -11.5451 14.7553 1.2
      vertex -10.9369 14.9114 1.2
    endloop
  endfacet
  facet normal -0.248601 0.968606 0
    outer loop
      vertex -11.5451 14.7553 1.2
      vertex -10.9369 14.9114 0
      vertex -11.5451 14.7553 0
    endloop
  endfacet
  facet normal -0.125348 0.992113 0
    outer loop
      vertex -10.314 14.9901 0
      vertex -10.9369 14.9114 1.2
      vertex -10.314 14.9901 1.2
    endloop
  endfacet
  facet normal -0.125348 0.992113 0
    outer loop
      vertex -10.9369 14.9114 1.2
      vertex -10.314 14.9901 0
      vertex -10.9369 14.9114 0
    endloop
  endfacet
  facet normal -0.904811 0.425812 0
    outer loop
      vertex -14.6489 11.8406 0
      vertex -14.3815 12.4088 1.2
      vertex -14.3815 12.4088 0
    endloop
  endfacet
  facet normal -0.904811 0.425812 0
    outer loop
      vertex -14.3815 12.4088 1.2
      vertex -14.6489 11.8406 0
      vertex -14.6489 11.8406 1.2
    endloop
  endfacet
  facet normal -0.844336 0.535814 0
    outer loop
      vertex -14.3815 12.4088 0
      vertex -14.0451 12.9389 1.2
      vertex -14.0451 12.9389 0
    endloop
  endfacet
  facet normal -0.844336 0.535814 0
    outer loop
      vertex -14.0451 12.9389 1.2
      vertex -14.3815 12.4088 0
      vertex -14.3815 12.4088 1.2
    endloop
  endfacet
  facet normal 0.684624 -0.728896 0
    outer loop
      vertex 13.1871 -13.8526 0
      vertex 13.6448 -13.4227 1.2
      vertex 13.1871 -13.8526 1.2
    endloop
  endfacet
  facet normal 0.684624 -0.728896 0
    outer loop
      vertex 13.6448 -13.4227 1.2
      vertex 13.1871 -13.8526 0
      vertex 13.6448 -13.4227 0
    endloop
  endfacet
  facet normal 0.587698 -0.80908 0
    outer loop
      vertex 12.6791 -14.2216 0
      vertex 13.1871 -13.8526 1.2
      vertex 12.6791 -14.2216 1.2
    endloop
  endfacet
  facet normal 0.587698 -0.80908 0
    outer loop
      vertex 13.1871 -13.8526 1.2
      vertex 12.6791 -14.2216 0
      vertex 13.1871 -13.8526 0
    endloop
  endfacet
  facet normal 0.904811 -0.425812 0
    outer loop
      vertex 14.3815 -12.4088 1.2
      vertex 14.6489 -11.8406 0
      vertex 14.6489 -11.8406 1.2
    endloop
  endfacet
  facet normal 0.904811 -0.425812 0
    outer loop
      vertex 14.6489 -11.8406 0
      vertex 14.3815 -12.4088 1.2
      vertex 14.3815 -12.4088 0
    endloop
  endfacet
  facet normal 0.844336 -0.535814 0
    outer loop
      vertex 14.0451 -12.9389 1.2
      vertex 14.3815 -12.4088 0
      vertex 14.3815 -12.4088 1.2
    endloop
  endfacet
  facet normal 0.844336 -0.535814 0
    outer loop
      vertex 14.3815 -12.4088 0
      vertex 14.0451 -12.9389 1.2
      vertex 14.0451 -12.9389 0
    endloop
  endfacet
  facet normal 0.951076 -0.308956 0
    outer loop
      vertex 14.6489 -11.8406 1.2
      vertex 14.8429 -11.2434 0
      vertex 14.8429 -11.2434 1.2
    endloop
  endfacet
  facet normal 0.951076 -0.308956 0
    outer loop
      vertex 14.8429 -11.2434 0
      vertex 14.6489 -11.8406 1.2
      vertex 14.6489 -11.8406 0
    endloop
  endfacet
  facet normal 0.248601 -0.968606 0
    outer loop
      vertex 10.9369 -14.9114 0
      vertex 11.5451 -14.7553 1.2
      vertex 10.9369 -14.9114 1.2
    endloop
  endfacet
  facet normal 0.248601 -0.968606 0
    outer loop
      vertex 11.5451 -14.7553 1.2
      vertex 10.9369 -14.9114 0
      vertex 11.5451 -14.7553 0
    endloop
  endfacet
  facet normal 0.125348 -0.992113 0
    outer loop
      vertex 10.314 -14.9901 0
      vertex 10.9369 -14.9114 1.2
      vertex 10.314 -14.9901 1.2
    endloop
  endfacet
  facet normal 0.125348 -0.992113 0
    outer loop
      vertex 10.9369 -14.9114 1.2
      vertex 10.314 -14.9901 0
      vertex 10.9369 -14.9114 0
    endloop
  endfacet
  facet normal 0.481784 -0.87629 0
    outer loop
      vertex 12.1289 -14.5241 0
      vertex 12.6791 -14.2216 1.2
      vertex 12.1289 -14.5241 1.2
    endloop
  endfacet
  facet normal 0.481784 -0.87629 0
    outer loop
      vertex 12.6791 -14.2216 1.2
      vertex 12.1289 -14.5241 0
      vertex 12.6791 -14.2216 0
    endloop
  endfacet
  facet normal 0.98227 -0.187471 0
    outer loop
      vertex 14.8429 -11.2434 1.2
      vertex 14.9606 -10.6267 0
      vertex 14.9606 -10.6267 1.2
    endloop
  endfacet
  facet normal 0.98227 -0.187471 0
    outer loop
      vertex 14.9606 -10.6267 0
      vertex 14.8429 -11.2434 1.2
      vertex 14.8429 -11.2434 0
    endloop
  endfacet
endsolid OpenSCAD_Model
